<?xml version="1.0" standalone="no"?>
<!DOCTYPE svg PUBLIC "-//W3C//DTD SVG 20010904//EN"
 "http://www.w3.org/TR/2001/REC-SVG-20010904/DTD/svg10.dtd">
<svg version="1.0" xmlns="http://www.w3.org/2000/svg"
 width="419.000000pt" height="284.000000pt" viewBox="0 0 419.000000 284.000000"
 preserveAspectRatio="xMidYMid meet">

<g transform="translate(0.000000,284.000000) scale(0.100000,-0.100000)"
fill="#000000" stroke="none">
<path d="M95 2811 c-11 -5 -29 -19 -40 -31 -20 -22 -20 -36 -20 -1179 l0
-1156 28 -48 c106 -180 558 -306 1337 -374 293 -25 1126 -25 1420 0 847 73
1303 216 1360 426 7 26 9 412 8 1175 l-3 1136 -27 27 c-54 53 -69 46 -339
-153 -134 -99 -250 -184 -257 -188 -8 -5 -79 51 -208 165 -207 181 -240 205
-276 194 -11 -4 -111 -93 -220 -199 -110 -105 -204 -192 -209 -194 -5 -2 -117
85 -249 193 -132 108 -253 200 -269 206 -22 8 -36 7 -53 -2 -13 -7 -129 -98
-258 -204 -129 -105 -241 -195 -248 -199 -9 -5 -75 54 -210 187 -108 108 -210
200 -225 206 -20 8 -36 7 -57 -2 -16 -6 -115 -87 -219 -179 -105 -93 -195
-168 -201 -168 -5 0 -119 81 -253 179 -133 99 -254 182 -267 185 -14 3 -34 1
-45 -3z m2466 -572 c244 -199 454 -365 468 -370 13 -5 33 -6 45 -3 16 5 625
449 894 652 l32 24 0 -715 0 -716 -54 24 c-137 60 -405 126 -676 164 -368 52
-672 71 -1160 71 -488 0 -792 -19 -1160 -71 -271 -38 -539 -104 -676 -164
l-54 -24 0 716 0 715 33 -24 c237 -180 877 -647 893 -652 12 -4 32 -2 45 3 14
5 224 171 468 370 243 199 446 361 451 361 5 0 208 -162 451 -361z m-1141 42
c-1 -3 -35 -33 -77 -66 -41 -33 -99 -79 -128 -102 l-52 -42 -169 125 c-93 68
-170 128 -172 133 -2 5 61 66 139 134 l143 125 158 -151 c87 -83 158 -153 158
-156z m1937 84 l45 -40 -167 -123 c-91 -67 -170 -123 -175 -125 -11 -3 -259
196 -260 209 0 6 67 77 150 158 l150 148 106 -94 c59 -51 127 -111 151 -133z
m-617 -1195 c608 -47 1069 -142 1219 -250 l41 -30 0 -79 0 -79 -27 9 c-16 5
-61 20 -101 34 -233 80 -564 139 -1022 182 -268 25 -1212 25 -1480 0 -493 -47
-850 -114 -1065 -200 l-85 -34 0 83 0 84 41 30 c176 127 704 222 1469 264 125
7 876 -3 1010 -14z m-195 -380 c350 -17 661 -51 900 -96 156 -30 170 -34 159
-44 -13 -11 -266 -57 -444 -80 -536 -69 -1299 -79 -1880 -25 -253 24 -642 86
-664 105 -11 10 3 14 159 44 454 87 1170 125 1770 96z m-2197 -250 c53 -38
381 -112 664 -150 956 -126 2242 -65 2827 135 41 14 80 25 86 25 6 0 26 -13
45 -30 l35 -30 -25 -21 c-97 -83 -362 -159 -741 -213 -1079 -156 -2631 -49
-2991 206 -16 11 -28 24 -28 29 0 10 78 69 92 69 5 0 21 -9 36 -20z"/>
<path d="M2046 1968 c-55 -15 -131 -92 -146 -149 -37 -135 56 -265 196 -277
148 -12 264 131 223 276 -18 65 -88 134 -151 150 -54 14 -69 14 -122 0z m112
-154 c29 -20 31 -83 2 -109 -48 -44 -120 -10 -120 56 0 43 27 69 70 69 14 0
36 -7 48 -16z"/>
<path d="M490 1784 c-191 -83 -168 -361 34 -415 125 -34 255 61 264 192 8 103
-43 187 -134 225 -43 18 -120 17 -164 -2z m143 -156 c38 -45 3 -118 -58 -118
-59 0 -93 58 -64 111 22 42 89 46 122 7z"/>
<path d="M3512 1774 c-124 -62 -158 -221 -70 -328 85 -104 225 -110 319 -16
108 108 84 272 -50 342 -69 36 -129 37 -199 2z m142 -135 c20 -16 26 -29 26
-59 0 -44 -26 -70 -70 -70 -44 0 -70 26 -70 70 0 30 6 43 26 59 15 12 34 21
44 21 10 0 29 -9 44 -21z"/>
</g>
</svg>
